<svg xmlns="http://www.w3.org/2000/svg" width="122.9" height="107.484" viewBox="0 0 196.727 236">
  <g id="expences2" transform="translate(7778.625 1083)">
    <g id="Subtraction_3" data-name="Subtraction 3" transform="translate(-7778.625 -1106)" fill="none">
      <path d="M130,259H20A20,20,0,0,1,0,239V43A20,20,0,0,1,20,23H48v6A10.011,10.011,0,0,0,58,39H92a10.011,10.011,0,0,0,10-10V23h28a20,20,0,0,1,20,20V239a20,20,0,0,1-20,20Z" stroke="none"/>
      <path d="M 129.9995880126953 252.0002288818359 C 133.4721527099609 252.0002288818359 136.7369079589844 250.6479797363281 139.1925048828125 248.1925201416016 C 141.6480102539062 245.7372283935547 143.0002899169922 242.4727325439453 143.0002899169922 239.0004119873047 L 143.0002899169922 43.00019836425781 C 143.0002899169922 39.52787780761719 141.6480102539062 36.26337814331055 139.1924743652344 33.80805587768555 C 136.7369079589844 31.35262680053711 133.4721527099609 30.00037574768066 129.9995880126953 30.00037574768066 L 108.9706192016602 30.00037574768066 C 108.4510192871094 38.91030120849609 101.0377426147461 45.99969863891602 91.99979400634766 45.99969863891602 L 57.99958038330078 45.99969863891602 C 48.961669921875 45.99969863891602 41.54842376708984 38.91030120849609 41.02882385253906 30.00037574768066 L 19.99979591369629 30.00037574768066 C 16.52736663818359 30.00037574768066 13.26283073425293 31.35259056091309 10.80754566192627 33.80787658691406 C 8.352224349975586 36.26323318481445 7.000009536743164 39.52777099609375 7.000009536743164 43.00019836425781 L 7.000009536743164 239.0004119873047 C 7.000009536743164 242.4728393554688 8.352188110351562 245.7374114990234 10.80750942230225 248.1927032470703 C 13.26283073425293 250.6480255126953 16.52736663818359 252.0002288818359 19.99979591369629 252.0002288818359 L 129.9995880126953 252.0002288818359 M 129.9995880126953 259.000244140625 L 19.99979591369629 259.000244140625 C 14.65761661529541 259.000244140625 9.635224342346191 256.919921875 5.857759952545166 253.1424407958984 C 2.080331087112427 249.3650207519531 9.730747478897683e-06 244.3425903320312 9.730747478897683e-06 239.0004119873047 L 9.730747478897683e-06 43.00019836425781 C 9.730747478897683e-06 37.65805435180664 2.080331087112427 32.63562774658203 5.857759952545166 28.85816192626953 C 9.635224342346191 25.08069801330566 14.65761661529541 23.00037574768066 19.99979591369629 23.00037574768066 L 47.99972534179688 23.00037574768066 L 47.99972534179688 28.99980545043945 C 47.99972534179688 34.51377105712891 52.48565292358398 38.99969863891602 57.99958038330078 38.99969863891602 L 91.99979400634766 38.99969863891602 C 97.51376342773438 38.99969863891602 101.9997253417969 34.51377105712891 101.9997253417969 28.99980545043945 L 101.9997253417969 23.00037574768066 L 129.9995880126953 23.00037574768066 C 135.3418273925781 23.00037574768066 140.3643951416016 25.08069801330566 144.1420745849609 28.85816192626953 C 147.9198303222656 32.63562774658203 150.0002899169922 37.65805435180664 150.0002899169922 43.00019836425781 L 150.0002899169922 239.0004119873047 C 150.0002899169922 244.3425598144531 147.9198303222656 249.364990234375 144.1420745849609 253.1424407958984 C 140.3643951416016 256.919921875 135.3418273925781 259.000244140625 129.9995880126953 259.000244140625 Z" stroke="none" fill="#2a2a2a"/>
    </g>
    <line id="Line_344" data-name="Line 344" x2="67" transform="translate(-7738.125 -1080.5)" fill="none" stroke="#2a2a2a" stroke-width="5"/>
    <path id="Union_2" data-name="Union 2" d="M16.776,18.359H0L.069,16.5A20.786,20.786,0,0,1,2.618,6.576,14.8,14.8,0,0,1,10.7.109L11.3,0h95.086L106.1.3a12.869,12.869,0,0,1,6.425,2.579c2.717,2.222,4.254,5.852,4.006,11.754h0l.218,107.22H31.232C21.1,122.3,16.588,116.6,16.786,107.6h-.01V18.359Zm79.618-9.74a14.465,14.465,0,0,1,2.033-5.049H11.6A11.274,11.274,0,0,0,5.691,8.381a15.828,15.828,0,0,0-1.924,6.388H96.523a15.5,15.5,0,0,1-.129-6.15Zm6.5-5.029a11.749,11.749,0,0,0-2.994,5.7,13.5,13.5,0,0,0,.644,6.725l.763,2.341H20.356V107.6h-.01c.01,7.082,2.846,11.258,10.619,10.7l.2-.01h81.789V14.65l.01-.079c.208-4.652-.833-7.379-2.7-8.907-1.755-1.448-4.343-1.964-7.367-2.073Z" transform="translate(-7583.975 -898.625) rotate(180)" fill="none" stroke="#2a2a2a" stroke-width="4"/>
    <line id="Line_345" data-name="Line 345" x2="108" transform="translate(-7758.125 -1039.5)" fill="none" stroke="#2a2a2a" stroke-width="7"/>
    <path id="Path_518" data-name="Path 518" d="M-8186.857-1531.865h-42.032v75.927h42.032" transform="translate(476.375 525)" fill="none" stroke="#2a2a2a" stroke-width="7"/>
    <line id="Line_346" data-name="Line 346" x2="45" transform="translate(-7755.125 -915.5)" fill="none" stroke="#2a2a2a" stroke-width="7"/>
    <line id="Line_347" data-name="Line 347" x2="45" transform="translate(-7755.125 -900.062)" fill="none" stroke="#2a2a2a" stroke-width="7"/>
    <line id="Line_348" data-name="Line 348" x2="45" transform="translate(-7755.125 -884.623)" fill="none" stroke="#2a2a2a" stroke-width="7"/>
    <text id="_" data-name="₹" transform="translate(-7745.625 -949)" fill="#2a2a2a" font-size="56" font-family="Roboto-Black, Roboto" font-weight="800"><tspan x="0" y="0">₹</tspan></text>
    <g id="Icon_feather-pie-chart" data-name="Icon feather-pie-chart" transform="translate(-7686.75 -991)">
      <path id="Path_519" data-name="Path 519" d="M39.845,29.294A19.18,19.18,0,1,1,14.508,4.245" transform="translate(0 0.347)" fill="none" stroke="#2a2a2a" stroke-linecap="round" stroke-linejoin="round" stroke-width="6"/>
      <path id="Path_520" data-name="Path 520" d="M37.18,22.18A19.18,19.18,0,0,0,18,3V22.18Z" transform="translate(4.18)" fill="none" stroke="#2a2a2a" stroke-linecap="round" stroke-linejoin="round" stroke-width="6"/>
    </g>
  </g>
</svg>
