<svg xmlns="http://www.w3.org/2000/svg" width="122.9" height="107.484" viewBox="0 0 122.9 107.484">
  <g id="income01" transform="translate(8173 1428.614)">
    <path id="earn-icon" d="M25.11,88.48V49.69H42.57C50,51,57.36,55,64.76,59.68H78.31c6.14.37,9.35,6.59,3.39,10.67-4.75,3.49-11,3.29-17.46,2.72-4.43-.22-4.62,5.73,0,5.75,1.61.13,3.36-.25,4.88-.25,8,0,14.63-1.54,18.67-7.88l2-4.74L110,56c10.09-3.32,17.27,7.23,9.83,14.57A263.862,263.862,0,0,1,74.91,97c-11.13,6.77-22.26,6.54-33.37,0ZM0,46H19.86V92.38H0Z" transform="translate(-8173 -1423.121)" fill="#2a2a2a" fill-rule="evenodd"/>
    <g id="money-bag-icon" transform="matrix(0.966, 0.259, -0.259, 0.966, -8102.561, -1428.622)">
      <path id="Path_515" data-name="Path 515" d="M18.353,10.172C17.44,7.479,16.622,4.762,15.925,2,18.512-.84,28.5-.465,31.375,1.954L28.716,8.277c1.433-1.88,1.914-2.65,2.765-3.7a8.07,8.07,0,0,1,1.015.789,4.144,4.144,0,0,1,1.568,2.5,2.611,2.611,0,0,1-.717,2.092l-6.1,7.107a13.415,13.415,0,0,1-2.3-.582c.346-.813.765-1.712,1.111-2.525l-2.222,2.395a8.3,8.3,0,0,0-5.91.721l-6.194-7.43A2.066,2.066,0,0,1,11.2,8.316c0-1.794,2.679-3.347,4.088-3.934l3.068,5.79Zm7.935,13.421-1.207-5.525c5.174.962,13.47,11.488,16.148,16.273a45.6,45.6,0,0,1,3.549,8.141c1.952,7.281.072,14.09-7.824,15.677-4.948,1-14.176,1.063-19.38.793-5.593-.289-14.253-.279-16.514-6.025C-2.589,43.656,4.1,32.61,10.2,25.849a32.826,32.826,0,0,1,2.491-2.486C14.905,21.41,17.3,19.1,20.152,18.13l-2.76,5.136L21.4,17.957h2.111l2.779,5.636Zm-2.573,4.535V29.1a9.3,9.3,0,0,1,2.664.64A5.294,5.294,0,0,1,28.317,31.2a6.161,6.161,0,0,1,1.01,1.524,3.539,3.539,0,0,1,.356,1.438,1.716,1.716,0,0,1-.529,1.255,1.768,1.768,0,0,1-1.289.529A1.808,1.808,0,0,1,26.018,34.4a3.29,3.29,0,0,0-2.308-2.409v6.035c1.2.327,2.159.63,2.866.9A5.836,5.836,0,0,1,28.485,40.1a5.461,5.461,0,0,1,1.39,1.9,6.017,6.017,0,0,1,.486,2.428,6.338,6.338,0,0,1-.779,3.092,6.187,6.187,0,0,1-2.289,2.361,8.067,8.067,0,0,1-3.587,1.082v.986a3.416,3.416,0,0,1-.168,1.245.7.7,0,0,1-.731.39.811.811,0,0,1-.731-.317,1.843,1.843,0,0,1-.207-.991V50.994a9.1,9.1,0,0,1-2.967-.8,6.989,6.989,0,0,1-2.121-1.515A6.362,6.362,0,0,1,15.53,46.8a4.953,4.953,0,0,1-.4-1.924,1.735,1.735,0,0,1,.543-1.25,1.814,1.814,0,0,1,1.351-.558,1.942,1.942,0,0,1,1.106.3,1.6,1.6,0,0,1,.625.856,18.718,18.718,0,0,0,.678,1.823,3.6,3.6,0,0,0,.88,1.154,3.9,3.9,0,0,0,1.558.8V41.256a17.674,17.674,0,0,1-3.246-1.2,5.453,5.453,0,0,1-2.116-1.875,5.563,5.563,0,0,1-.813-3.131,5.537,5.537,0,0,1,1.587-4.088,7.107,7.107,0,0,1,4.588-1.856v-.947c0-.813.308-1.217.914-1.217.625,0,.933.39.933,1.183Zm-1.842,9.358V31.932a4.98,4.98,0,0,0-1.9.957,2.26,2.26,0,0,0-.683,1.8,2.23,2.23,0,0,0,.64,1.731,5.849,5.849,0,0,0,1.943,1.063Zm1.842,4.3v6.357a3.964,3.964,0,0,0,2.26-1.173,3.012,3.012,0,0,0,.8-2.063,2.473,2.473,0,0,0-.779-1.952,6.2,6.2,0,0,0-2.279-1.169Z" transform="translate(0 0)" fill="#2a2a2a" fill-rule="evenodd"/>
    </g>
  </g>
</svg>
