<svg xmlns="http://www.w3.org/2000/svg" width="30" height="30" viewBox="0 0 30 30">
  <g id="Group_112" data-name="Group 112" transform="translate(-4760 -1025)">
    <g id="Group_108" data-name="Group 108" transform="translate(4731 550.641)">
      <rect id="Rectangle_101" data-name="Rectangle 101" width="17.009" height="21.261" rx="1.5" transform="matrix(0.966, -0.259, 0.259, 0.966, 30, 481.761)" fill="#2a2a2a"/>
      <rect id="Rectangle_100" data-name="Rectangle 100" width="17.009" height="21.261" rx="1.5" transform="translate(35.917 477.359)" fill="#fff"/>
      <line id="Line_11" data-name="Line 11" x2="3.455" transform="translate(38.973 482.541)" fill="none" stroke="#d6d6d6" stroke-linecap="round" stroke-width="1"/>
      <line id="Line_12" data-name="Line 12" x2="5.581" transform="translate(38.973 484.136)" fill="none" stroke="#d6d6d6" stroke-linecap="round" stroke-width="1"/>
      <line id="Line_13" data-name="Line 13" x2="10.896" transform="translate(38.973 486.262)" fill="none" stroke="#d6d6d6" stroke-linecap="round" stroke-width="1"/>
      <line id="Line_14" data-name="Line 14" x2="10.896" transform="translate(38.973 488.122)" fill="none" stroke="#d6d6d6" stroke-linecap="round" stroke-width="1"/>
      <line id="Line_15" data-name="Line 15" x2="10.896" transform="translate(38.973 489.983)" fill="none" stroke="#d6d6d6" stroke-linecap="round" stroke-width="1"/>
      <line id="Line_16" data-name="Line 16" x2="10.896" transform="translate(38.973 491.843)" fill="none" stroke="#d6d6d6" stroke-linecap="round" stroke-width="1"/>
      <line id="Line_17" data-name="Line 17" x2="10.896" transform="translate(38.973 493.704)" fill="none" stroke="#d6d6d6" stroke-linecap="round" stroke-width="1"/>
      <path id="Union_1" data-name="Union 1" d="M3.818,9.567a.236.236,0,0,1-.244-.192l-.2-1.267a3.591,3.591,0,0,1-.831-.478l-1.224.478a.238.238,0,0,1-.293-.1L.05,6.362A.22.22,0,0,1,.1,6.052l1.028-.79c0-.167-.024-.31-.024-.478s.024-.31.024-.478L.074,3.517a.29.29,0,0,1-.049-.312L1,1.555A.23.23,0,0,1,1.3,1.46l1.222.478a4.113,4.113,0,0,1,.833-.478l.2-1.268A.263.263,0,0,1,3.794,0H5.75a.263.263,0,0,1,.245.192l.17,1.268A3.558,3.558,0,0,1,7,1.939L8.22,1.46a.239.239,0,0,1,.295.094l.977,1.651a.22.22,0,0,1-.049.312l-1.026.788c0,.168.024.312.024.478a3.03,3.03,0,0,1-.024.478l1.075.79a.286.286,0,0,1,.05.31L8.563,8.012a.229.229,0,0,1-.294.1L7.046,7.63a4.17,4.17,0,0,1-.831.478l-.2,1.267a.262.262,0,0,1-.244.192Z" transform="translate(48.401 483.359)" fill="#2a2a2a"/>
      <path id="Path_58" data-name="Path 58" d="M5051.735,1215.333l1.712,1.713.758-.758,2.091-2.09" transform="translate(-5000.831 -727.5)" fill="none" stroke="#fff" stroke-width="1"/>
    </g>
    <rect id="Rectangle_106" data-name="Rectangle 106" width="30" height="30" transform="translate(4760 1025)" fill="none"/>
  </g>
</svg>
