<svg xmlns="http://www.w3.org/2000/svg" width="30" height="30" viewBox="0 0 30 30">
  <g id="Group_111" data-name="Group 111" transform="translate(-4760 -987)">
    <g id="Group_109" data-name="Group 109" transform="translate(4715 643)">
      <path id="Subtraction_1" data-name="Subtraction 1" d="M22,24H2a2,2,0,0,1-2-2V2A2,2,0,0,1,2,0H22a2,2,0,0,1,2,2V22A2,2,0,0,1,22,24ZM2.6,4.8a1,1,0,0,0-1,1V21.4a1,1,0,0,0,1,1H21.4a1,1,0,0,0,1-1V5.8a1,1,0,0,0-1-1Z" transform="translate(48 348)" fill="#fff"/>
      <rect id="Rectangle_83" data-name="Rectangle 83" width="3" height="3" transform="translate(53 345)" fill="#fff"/>
      <g id="Group_91" data-name="Group 91" transform="translate(52.817 356.24)">
        <g id="Rectangle_86" data-name="Rectangle 86" fill="#fff" stroke="#fff" stroke-width="1">
          <rect width="2.409" height="2.409" stroke="none"/>
          <rect x="0.5" y="0.5" width="1.409" height="1.409" fill="none"/>
        </g>
        <g id="Rectangle_89" data-name="Rectangle 89" transform="translate(0 4.817)" fill="#fff" stroke="#fff" stroke-width="1">
          <rect width="2.409" height="2.409" stroke="none"/>
          <rect x="0.5" y="0.5" width="1.409" height="1.409" fill="none"/>
        </g>
        <g id="Rectangle_87" data-name="Rectangle 87" transform="translate(12.043)" fill="#fff" stroke="#fff" stroke-width="1">
          <rect width="2.409" height="2.409" stroke="none"/>
          <rect x="0.5" y="0.5" width="1.409" height="1.409" fill="none"/>
        </g>
        <g id="Rectangle_91" data-name="Rectangle 91" transform="translate(12.043 4.817)" fill="#fff" stroke="#fff" stroke-width="1">
          <rect width="2.409" height="2.409" stroke="none"/>
          <rect x="0.5" y="0.5" width="1.409" height="1.409" fill="none"/>
        </g>
        <g id="Rectangle_88" data-name="Rectangle 88" transform="translate(6.423)" fill="#fff" stroke="#fff" stroke-width="1">
          <rect width="2.409" height="2.409" stroke="none"/>
          <rect x="0.5" y="0.5" width="1.409" height="1.409" fill="none"/>
        </g>
        <g id="Rectangle_90" data-name="Rectangle 90" transform="translate(6.423 4.817)" fill="#fff" stroke="#fff" stroke-width="1">
          <rect width="2.409" height="2.409" stroke="none"/>
          <rect x="0.5" y="0.5" width="1.409" height="1.409" fill="none"/>
        </g>
      </g>
      <rect id="Rectangle_84" data-name="Rectangle 84" width="3" height="3" transform="translate(64 345)" fill="#fff"/>
    </g>
    <rect id="Rectangle_107" data-name="Rectangle 107" width="30" height="30" transform="translate(4760 987)" fill="none"/>
  </g>
</svg>
