<svg xmlns="http://www.w3.org/2000/svg" width="35" height="35" viewBox="0 0 35 35">
  <g id="Group_118" data-name="Group 118" transform="translate(-4840 -1380)">
    <circle id="Ellipse_20" data-name="Ellipse 20" cx="17.5" cy="17.5" r="17.5" transform="translate(4840 1380)" fill="#0f0f0f"/>
    <g id="noun-pay-1636637" transform="translate(4850 1389.981)">
      <g id="Group_98" data-name="Group 98" transform="translate(0 -1.981)">
        <path id="Path_59" data-name="Path 59" d="M15.985,21.33a.661.661,0,0,1,.278-.518A13.429,13.429,0,0,0,17.6,19.73a15.046,15.046,0,0,0,2.379-2.916A10.012,10.012,0,0,0,21.13,14.92a4.952,4.952,0,0,0,.147-1.366,2.225,2.225,0,0,1,.635-1.883,1.5,1.5,0,0,1,1.157-.446,1.191,1.191,0,0,1,.813.544l.034.053.015.064a6.9,6.9,0,0,1-.019,3.763c-.038.121-.076.242-.117.363-.235.7-.355,1.138-.068,1.483a1.285,1.285,0,0,0,.847.413,2.167,2.167,0,0,0,1.38-.439,2.41,2.41,0,0,0,1.331-2.106,5.091,5.091,0,0,0-.2-1.891,2.026,2.026,0,0,1,.068-1.686A1.513,1.513,0,0,1,28.351,11a.654.654,0,0,1,.121.007c.5.064.782.507,1.01.919a7.429,7.429,0,0,1,.828,2.549,9.286,9.286,0,0,1-.147,2.957,4.214,4.214,0,0,1-.866,2.832,4.837,4.837,0,0,1-2.523,1.471,7.838,7.838,0,0,1-1.43.273,6.331,6.331,0,0,0-1.879.464c-.246.1-.491.223-.813.386a17.681,17.681,0,0,0-2.568,1.592.676.676,0,0,1-.834-.022L16.225,21.87a.649.649,0,0,1-.24-.54Z" transform="translate(-15.984 -4.59)" fill="none" stroke="#fff" stroke-width="1.25"/>
        <path id="Path_60" data-name="Path 60" d="M22.064,47.608a2.648,2.648,0,1,1,2.648,2.659,2.648,2.648,0,0,1-2.648-2.659Z" transform="translate(-15.274 -44.971)" fill="#1183e1"/>
      </g>
    </g>
  </g>
</svg>
