<svg xmlns="http://www.w3.org/2000/svg" width="35" height="35" viewBox="0 0 35 35">
  <g id="report" transform="translate(-4836 -1266)">
    <circle id="Ellipse_19" data-name="Ellipse 19" cx="17.5" cy="17.5" r="17.5" transform="translate(4836 1266)" fill="#0f0f0f"/>
    <g id="Group_102" data-name="Group 102" transform="translate(4813 729.716)">
      <path id="role-management-13" d="M207.405,210.505a.583.583,0,0,0-.384-.73c-.134-.042-.27-.079-.406-.114a4.664,4.664,0,1,0-4.291,0,8.615,8.615,0,0,0-6.454,8.329.583.583,0,0,0,1.166,0,7.441,7.441,0,0,1,9.639-7.1.582.582,0,0,0,.73-.384Zm-6.433-4.983a3.5,3.5,0,1,1,3.5,3.5A3.5,3.5,0,0,1,200.972,205.522Z" transform="translate(-164.87 344.426)" fill="#fff"/>
      <path id="Icon_ionic-ios-settings" data-name="Icon ionic-ios-settings" d="M12.625,8.928a1.14,1.14,0,0,1,.731-1.063,4.517,4.517,0,0,0-.547-1.317,1.155,1.155,0,0,1-.464.1,1.137,1.137,0,0,1-1.04-1.6A4.5,4.5,0,0,0,9.991,4.5a1.139,1.139,0,0,1-2.126,0,4.517,4.517,0,0,0-1.317.547,1.137,1.137,0,0,1-1.04,1.6,1.117,1.117,0,0,1-.464-.1A4.617,4.617,0,0,0,4.5,7.867a1.139,1.139,0,0,1,0,2.126,4.517,4.517,0,0,0,.547,1.317,1.138,1.138,0,0,1,1.5,1.5,4.543,4.543,0,0,0,1.317.547,1.137,1.137,0,0,1,2.122,0,4.517,4.517,0,0,0,1.317-.547,1.139,1.139,0,0,1,1.5-1.5,4.543,4.543,0,0,0,.547-1.317A1.145,1.145,0,0,1,12.625,8.928ZM8.949,10.771a1.845,1.845,0,1,1,1.845-1.845A1.844,1.844,0,0,1,8.949,10.771Z" transform="translate(37 549.642)" fill="#1183e1"/>
    </g>
  </g>
</svg>
