<svg xmlns="http://www.w3.org/2000/svg" width="46.866" height="47.028" viewBox="0 0 46.866 47.028">
  <g id="starticon" transform="translate(-1487.967 -3441.374)">
    <path id="Icon_weather-stars" data-name="Icon weather-stars" d="M21.4,32.469a17.917,17.917,0,0,0,12.625-5.762,18.028,18.028,0,0,0,5.134-12.991A18.04,18.04,0,0,0,44.34,26.655a18.035,18.035,0,0,0,12.677,5.762,18.711,18.711,0,0,0-17.863,18.7A18.528,18.528,0,0,0,21.4,32.469Z" transform="translate(1466.567 3432.47)" fill="#fff"/>
    <path id="Icon_weather-stars-2" data-name="Icon weather-stars" d="M21.4,23.254a9.113,9.113,0,0,0,6.421-2.931,9.169,9.169,0,0,0,2.611-6.608A9.175,9.175,0,0,0,33.066,20.3a9.173,9.173,0,0,0,6.448,2.931,9.517,9.517,0,0,0-9.085,9.512A9.424,9.424,0,0,0,21.4,23.254Z" transform="translate(1495.319 3427.659)" fill="#fff"/>
    <path id="Icon_weather-stars-3" data-name="Icon weather-stars" d="M21.4,23.254a9.113,9.113,0,0,0,6.421-2.931,9.169,9.169,0,0,0,2.611-6.608A9.175,9.175,0,0,0,33.066,20.3a9.173,9.173,0,0,0,6.448,2.931,9.517,9.517,0,0,0-9.085,9.512A9.424,9.424,0,0,0,21.4,23.254Z" transform="translate(1495.319 3455.659)" fill="#fff"/>
  </g>
</svg>
