<svg xmlns="http://www.w3.org/2000/svg" width="30" height="30" viewBox="0 0 30 30">
  <g id="Group_110" data-name="Group 110" transform="translate(-4792 -948)">
    <rect id="Rectangle_108" data-name="Rectangle 108" width="30" height="30" transform="translate(4792 948)" fill="none"/>
    <g id="Icon_feather-users" data-name="Icon feather-users" transform="translate(4793.929 952.3)">
      <path id="Path_13" data-name="Path 13" d="M1.5,29.63V27.253A4.753,4.753,0,0,1,6.253,22.5h9.506a4.753,4.753,0,0,1,4.753,4.753V29.63" transform="translate(5.63 -8.241)" fill="none" stroke="#fff" stroke-linecap="round" stroke-linejoin="round" stroke-width="2"/>
      <path id="Path_14" data-name="Path 14" d="M7.5,9.253A4.753,4.753,0,1,0,12.253,4.5,4.753,4.753,0,0,0,7.5,9.253Z" transform="translate(4.383 -4.5)" fill="none" stroke="#fff" stroke-linecap="round" stroke-linejoin="round" stroke-width="2"/>
      <path id="Path_15" data-name="Path 15" d="M30,29.67V27.294a4.753,4.753,0,0,1,3.565-4.6" transform="translate(-30 -8.281)" fill="none" stroke="#fff" stroke-linecap="round" stroke-linejoin="round" stroke-width="2"/>
      <path id="Path_16" data-name="Path 16" d="M27.574,4.695a4.753,4.753,0,0,0,0,9.209" transform="translate(-19.256 -4.541)" fill="none" stroke="#fff" stroke-linecap="round" stroke-linejoin="round" stroke-width="2"/>
    </g>
  </g>
</svg>
