<svg xmlns="http://www.w3.org/2000/svg" width="22.326" height="19.908" viewBox="0 0 22.326 19.908">
  <g id="Group_106" data-name="Group 106" transform="translate(-30 -477.359)">
    <rect id="Rectangle_101" data-name="Rectangle 101" width="13.578" height="16.972" rx="1.5" transform="matrix(0.966, -0.259, 0.259, 0.966, 30, 480.873)" fill="#d6d6d6"/>
    <rect id="Rectangle_100" data-name="Rectangle 100" width="13.578" height="16.972" rx="1.5" transform="translate(34.723 477.359)" fill="#fff"/>
    <line id="Line_11" data-name="Line 11" x2="2.758" transform="translate(37.163 481.496)" fill="none" stroke="#d6d6d6" stroke-linecap="round" stroke-width="1"/>
    <line id="Line_12" data-name="Line 12" x2="4.455" transform="translate(37.163 482.769)" fill="none" stroke="#d6d6d6" stroke-linecap="round" stroke-width="1"/>
    <line id="Line_13" data-name="Line 13" x2="8.698" transform="translate(37.163 484.466)" fill="none" stroke="#d6d6d6" stroke-linecap="round" stroke-width="1"/>
    <line id="Line_14" data-name="Line 14" x2="8.698" transform="translate(37.163 485.951)" fill="none" stroke="#d6d6d6" stroke-linecap="round" stroke-width="1"/>
    <line id="Line_15" data-name="Line 15" x2="8.698" transform="translate(37.163 487.436)" fill="none" stroke="#d6d6d6" stroke-linecap="round" stroke-width="1"/>
    <line id="Line_16" data-name="Line 16" x2="8.698" transform="translate(37.163 488.921)" fill="none" stroke="#d6d6d6" stroke-linecap="round" stroke-width="1"/>
    <line id="Line_17" data-name="Line 17" x2="8.698" transform="translate(37.163 490.406)" fill="none" stroke="#d6d6d6" stroke-linecap="round" stroke-width="1"/>
    <path id="Union_1" data-name="Union 1" d="M-5001.953-721.364a.188.188,0,0,1-.195-.153l-.157-1.011a2.871,2.871,0,0,1-.663-.382l-.977.382a.19.19,0,0,1-.234-.077l-.781-1.318a.175.175,0,0,1,.039-.247l.82-.631c0-.133-.019-.247-.019-.382s.019-.247.019-.382l-.84-.629a.232.232,0,0,1-.039-.249l.781-1.318a.183.183,0,0,1,.235-.075l.976.382a3.269,3.269,0,0,1,.665-.382l.156-1.012a.21.21,0,0,1,.2-.153h1.562a.21.21,0,0,1,.2.153l.136,1.012a2.837,2.837,0,0,1,.665.382l.976-.382a.191.191,0,0,1,.235.075l.78,1.318a.176.176,0,0,1-.039.249l-.819.629c0,.134.019.249.019.382a2.434,2.434,0,0,1-.019.382l.858.631a.228.228,0,0,1,.04.247l-.781,1.318a.183.183,0,0,1-.235.077l-.976-.382a3.331,3.331,0,0,1-.663.382l-.157,1.011a.209.209,0,0,1-.195.153Z" transform="translate(5049.689 1211.149)" fill="#2a2a2a"/>
    <path id="Path_58" data-name="Path 58" d="M5051.734,1215.1l1.367,1.367.6-.6,1.669-1.669" transform="translate(-5005.047 -729.384)" fill="none" stroke="#fff" stroke-width="1"/>
  </g>
</svg>
